<?xml version="1.0" encoding="UTF-8"?>

<svg xmlns="http://www.w3.org/2000/svg" xmlns:xlink="http://www.w3.org/1999/xlink" width="810pt" height="992.249974pt" viewBox="0 0 810 992.249974" version="1.2">

<defs>

<clipPath id="clip1">

<path d="M 48.839844 19.585938 L 728.882812 19.585938 L 728.882812 990.558594 L 48.839844 990.558594 Z M 48.839844 19.585938 "/>

</clipPath>

</defs>

<g id="surface1">

<path style=" stroke:none;fill-rule:evenodd;fill:rgb(100%,97.648621%,96.078491%);fill-opacity:1;" d="M 536.402344 744.75 C 536.425781 751.167969 541.582031 752.015625 546.699219 750.457031 C 545.988281 745.835938 541.207031 745.277344 536.402344 744.75 M 539.84375 729.890625 C 537.960938 733.804688 539.265625 738.964844 545.5625 737.886719 C 544.296875 734.578125 544.144531 730.164062 539.84375 729.890625 M 249.195312 696.742188 C 243.933594 697.589844 240.257812 700.011719 238.894531 704.746094 C 244.476562 708.28125 250.273438 703.539062 249.195312 696.742188 M 241.183594 689.890625 C 237.699219 690.601562 235.332031 692.433594 235.464844 696.742188 C 237.515625 698.230469 244.160156 696.976562 243.472656 692.179688 C 242.445312 691.667969 241.421875 691.167969 241.183594 689.890625 M 298.394531 671.609375 C 284.441406 682.457031 267.78125 690.632812 264.070312 709.320312 C 257.089844 744.394531 278.304688 769.890625 297.242188 785.890625 C 348.570312 814.042969 459.460938 818.769531 480.339844 757.320312 C 496.203125 710.59375 462.191406 675.265625 425.40625 664.746094 C 416.734375 662.269531 404.980469 661.621094 394.511719 660.179688 C 383.480469 658.660156 372.652344 655.390625 363.617188 654.46875 C 337.550781 651.785156 317.164062 672.160156 298.394531 671.609375 M 377.34375 513.898438 C 374.613281 514.589844 369.042969 512.464844 368.199219 515.039062 C 368.355469 519.070312 373.332031 518.296875 376.203125 519.609375 C 375.253906 516.382812 377.820312 516.652344 377.34375 513.898438 M 370.484375 504.753906 C 375.097656 505.964844 378.710938 506.257812 378.496094 500.1875 C 375.515625 497.769531 368.367188 498.535156 370.484375 504.753906 M 439.136719 422.472656 C 436.203125 422.582031 437.503906 426.941406 434.566406 427.046875 C 438.007812 436.933594 444.945312 443.335938 449.433594 452.183594 C 461.539062 459.28125 481.921875 453.8125 486.0625 441.902344 C 487.039062 439.042969 489.457031 429.253906 482.621094 428.183594 C 475.71875 460.949219 443.589844 446.585938 439.136719 422.472656 M 411.683594 355.046875 C 401.855469 355.496094 394.074219 359.722656 392.222656 364.183594 C 379.914062 393.964844 446.84375 407.066406 447.152344 376.757812 C 447.3125 360.472656 429.617188 354.234375 411.683594 355.046875 M 510.085938 312.761719 C 479.058594 307.769531 475.613281 352.386719 497.5 365.332031 C 523.242188 380.5625 548.304688 348.207031 531.835938 325.332031 C 527.210938 318.933594 517.859375 314.011719 510.085938 312.761719 M 363.617188 288.757812 C 351.457031 284.382812 343.5625 278.941406 333.859375 285.335938 C 310.320312 300.871094 332.359375 348.515625 362.480469 332.1875 C 375.496094 325.132812 372.992188 300.289062 363.617188 288.757812 M 553.570312 302.476562 C 563.128906 300.585938 569.292969 289.847656 576.457031 281.902344 C 583.449219 274.152344 588.753906 264.386719 595.90625 255.625 C 617.5625 229.078125 642.664062 204.640625 649.6875 175.621094 C 650.261719 173.265625 644.828125 163.945312 643.96875 158.480469 C 622.152344 142.597656 603.089844 164.929688 593.625 184.769531 C 588.851562 194.757812 581.929688 207.152344 577.597656 219.050781 C 571.753906 235.117188 571.785156 253.753906 566.160156 269.332031 C 561.457031 282.363281 551.496094 290.617188 553.570312 302.476562 M 346.460938 243.050781 C 356.339844 236.734375 348.457031 222.71875 348.738281 209.910156 C 349.199219 189.457031 357.210938 165.382812 349.890625 147.050781 C 356.421875 121.84375 348.570312 93.320312 336.164062 79.625 C 287.851562 66.691406 316.679688 137.179688 325.851562 158.480469 C 335.539062 180.953125 342.863281 205.09375 344.160156 224.765625 C 344.609375 231.515625 340.175781 235.945312 346.460938 243.050781 M 328.152344 200.769531 C 323.179688 165.945312 288.355469 121.933594 284.667969 80.769531 C 282.707031 58.996094 290.195312 38.5 307.546875 30.488281 C 318.921875 25.238281 324.65625 28.738281 335.011719 32.773438 C 359.613281 51.332031 360.96875 84.109375 362.480469 119.621094 C 363.21875 137.222656 367.035156 154.910156 365.90625 172.199219 C 364.394531 195.351562 358.777344 217.5625 361.328125 238.484375 C 364.550781 240.597656 368.683594 241.800781 371.625 244.191406 C 418.234375 235.136719 477.878906 264.550781 521.523438 283.050781 C 524.707031 287.875 529.363281 291.226562 535.265625 293.328125 C 544.320312 288.449219 546.148438 276.570312 548.988281 267.046875 C 558.523438 235.128906 564.523438 201.78125 578.746094 176.769531 C 595.386719 150.554688 624.726562 112.585938 666.855469 111.628906 C 688.335938 111.136719 700.433594 123.296875 701.179688 144.769531 C 698.496094 150.085938 694.523438 154.125 693.171875 160.765625 C 674.203125 178.988281 648.664062 192.082031 634.820312 219.050781 C 626.273438 235.6875 623.234375 254.878906 615.363281 271.621094 C 611.867188 279.070312 602.726562 286.773438 595.90625 294.476562 C 587.691406 303.765625 569.792969 313.707031 575.308594 326.472656 C 588.550781 327.722656 594.542969 336.21875 603.921875 341.328125 C 613.691406 366.121094 600.089844 389.847656 599.347656 416.761719 C 591.257812 419.894531 580.914062 415.460938 575.308594 417.898438 C 579.089844 426.101562 590.1875 420.921875 597.054688 421.328125 C 598.34375 427.453125 594.03125 437.175781 592.472656 444.1875 C 585.074219 446.175781 579.730469 438.035156 575.308594 444.1875 C 576.414062 449.945312 584.492188 448.738281 590.1875 449.898438 C 590.738281 457.695312 586.28125 460.472656 584.46875 465.898438 C 576.964844 466.464844 571.339844 453.65625 566.160156 462.46875 C 568.4375 467.433594 575.8125 467.296875 579.886719 470.46875 C 575.621094 490.589844 559.425781 498.800781 546.699219 510.472656 C 526.148438 519.265625 501.238281 523.734375 471.179688 523.042969 C 472.726562 499.589844 450.460938 504.539062 441.425781 515.039062 C 438.707031 502.003906 435.777344 481.890625 424.269531 483.042969 C 414.09375 484.058594 416.996094 500.378906 412.820312 510.472656 C 394.761719 493.953125 377.511719 527.269531 397.941406 533.324219 C 391.75 539.84375 385.835938 550.996094 389.945312 564.175781 C 400.523438 573.285156 416.980469 568.671875 429.992188 567.613281 C 441.742188 582.015625 456.878906 597.152344 473.472656 609.898438 C 491.824219 623.988281 522.628906 642.679688 543.273438 645.320312 C 525.4375 632.050781 510.382812 626.839844 492.917969 614.464844 C 469.996094 598.21875 445.820312 581.058594 432.277344 559.613281 C 420.984375 564.300781 400.882812 568.882812 394.511719 557.324219 C 394.542969 550.5 396.941406 546.027344 400.230469 542.46875 C 404.304688 538.929688 409.964844 547.445312 412.820312 541.324219 C 409.652344 531.15625 387.746094 526.632812 399.09375 512.753906 C 412.4375 512.378906 411.554688 526.21875 424.269531 526.464844 C 423.160156 514.550781 419.894531 505.425781 424.269531 493.324219 C 436.304688 499.296875 428.171875 520.65625 436.855469 528.757812 C 446.261719 524.824219 447.347656 512.570312 460.882812 512.753906 C 472.503906 525.113281 452.96875 533.382812 454.011719 543.617188 C 454.871094 551.976562 466.230469 554.25 467.742188 564.175781 C 481.210938 568.984375 490.371094 581.738281 503.214844 588.1875 C 506.105469 589.632812 509.308594 589.09375 512.375 590.46875 C 526.871094 596.96875 537.476562 614.285156 555.863281 612.179688 C 526.511719 586.640625 483.027344 575.207031 460.882812 542.46875 C 461.945312 537.058594 465.925781 534.558594 468.890625 531.039062 C 491.78125 529.835938 525.609375 526.464844 550.144531 516.1875 C 570.265625 584.804688 585.117188 664.015625 582.175781 736.746094 C 589.011719 738.746094 582.863281 746.675781 589.046875 749.324219 C 597.527344 745.542969 610.625 747.425781 618.792969 750.457031 C 615.394531 755.457031 610.082031 758.523438 609.640625 766.460938 C 613.535156 770.949219 621.0625 771.816406 622.230469 779.027344 C 603.394531 780.527344 604.445312 799.355469 615.363281 808.746094 C 609.238281 811.332031 601.398438 811.242188 594.765625 815.601562 C 593.617188 819.402344 592.710938 823.449219 591.332031 827.027344 C 580.980469 824.796875 570.617188 822.570312 563.871094 816.746094 C 545.257812 830.917969 522.652344 841.101562 492.917969 844.171875 C 492.648438 845.800781 491.03125 846.097656 490.640625 847.605469 C 496.4375 864.78125 504.703125 889.566406 503.214844 911.601562 C 502.867188 916.804688 498.175781 921.5625 504.367188 925.316406 C 517.609375 922.011719 524.839844 916.871094 537.554688 912.738281 C 546.195312 909.929688 555.789062 905.863281 565.007812 903.597656 C 604.214844 893.980469 649.417969 900.886719 662.277344 933.308594 C 665.039062 940.285156 661.046875 954.582031 670.289062 957.3125 C 672.644531 949.035156 667.941406 938.484375 666.855469 929.886719 C 687.101562 923.480469 691.738281 945.769531 690.882812 960.746094 C 694.378906 961.566406 694.253906 958.769531 697.753906 959.597656 C 697.144531 954.875 696.070312 950.601562 695.464844 945.882812 C 698.453125 948.945312 702.851562 944.996094 705.765625 945.882812 C 715.925781 948.96875 722.875 965.789062 710.339844 972.164062 C 703.765625 969.0625 690.171875 971.496094 677.15625 971.023438 C 628.292969 969.257812 577.753906 962.519531 526.105469 959.597656 C 511.65625 958.777344 497.027344 960.761719 482.621094 956.167969 C 477.160156 944.832031 486.941406 935.363281 488.351562 924.171875 C 491.054688 902.53125 484.007812 880.101562 478.050781 861.308594 C 470.652344 858.144531 464.707031 864.058594 457.441406 865.886719 C 413.488281 876.964844 344.488281 872.882812 300.6875 869.3125 C 290.328125 883.390625 281.429688 907.0625 285.808594 928.734375 C 283.484375 932.894531 279.804688 935.699219 277.796875 940.171875 C 230.953125 942.960938 182.742188 929.71875 133.617188 929.886719 C 130.867188 926.160156 125.449219 925.085938 123.316406 920.742188 C 122.621094 905.191406 130.011719 897.703125 138.195312 891.035156 C 143.011719 889.980469 150.300781 895.617188 150.785156 888.742188 C 148.363281 880.574219 138.738281 888.859375 132.480469 887.597656 C 124.976562 896.109375 116.246094 903.382812 117.601562 920.742188 C 105.148438 921.929688 92.015625 925.324219 83.257812 918.449219 C 77.65625 902.636719 88.554688 894.246094 94.714844 886.453125 C 83.5 883.660156 79.957031 897.332031 75.25 904.738281 C 70.265625 901.203125 67.085938 908.417969 62.664062 903.597656 C 58.730469 893.035156 64.253906 883.472656 68.394531 877.3125 C 84.164062 869.480469 101.269531 858.625 118.738281 857.878906 C 128.574219 857.46875 137.070312 863.796875 146.207031 867.027344 C 153.550781 869.636719 161.875 869.175781 169.089844 871.59375 C 175.984375 873.90625 181.285156 879.097656 188.539062 881.890625 C 191.980469 883.203125 196.578125 882.828125 199.988281 884.167969 C 223.167969 893.371094 249.160156 902.410156 268.636719 912.738281 C 276.285156 898.285156 275.382812 875.277344 283.515625 861.308594 C 280.402344 856.367188 281.601562 854.144531 277.796875 849.878906 C 274.113281 849.375 271.59375 847.703125 267.5 847.605469 C 223.519531 822.691406 195.78125 793.574219 195.410156 740.171875 C 195.09375 695.324219 209.203125 636.699219 213.71875 595.039062 C 219.210938 588.328125 231.425781 588.339844 241.183594 585.894531 C 251.59375 575.636719 267.09375 573.988281 280.089844 565.324219 C 292.59375 556.976562 301.8125 545.941406 316.703125 543.617188 C 326.085938 542.140625 336.050781 545.910156 341.878906 536.757812 C 343.683594 525.050781 338.675781 520.144531 336.164062 512.753906 C 339.308594 505.617188 344.351562 500.371094 344.160156 489.902344 C 338.386719 485.136719 333.703125 484.957031 324.710938 487.613281 C 325.527344 483.851562 326.550781 480.304688 327 476.1875 C 320.289062 462.632812 305.898438 473.441406 301.824219 481.902344 C 298.539062 471.6875 289.519531 459.492188 276.648438 465.898438 C 267.117188 452.183594 258.261719 437.796875 253.773438 419.046875 C 258.613281 413.597656 272.042969 416.730469 273.21875 407.613281 C 265.933594 405.597656 258.890625 411.855469 251.484375 413.328125 C 247.210938 400.769531 247.058594 382.152344 245.761719 366.480469 C 254.078125 363.929688 269.453125 375.074219 276.648438 369.902344 C 271.523438 362.070312 256.433594 364.195312 246.898438 360.761719 C 244.894531 347.207031 250.449219 334.71875 252.621094 321.902344 C 268.886719 326.816406 280.214844 343.546875 294.964844 344.765625 C 285.910156 330.945312 267.558594 326.421875 254.910156 316.1875 C 269.011719 279.230469 291.355469 250.503906 328.152344 236.191406 C 327.507812 228.796875 330.070312 214.273438 328.152344 200.769531 "/>

<path style=" stroke:none;fill-rule:evenodd;fill:rgb(0%,0%,0%);fill-opacity:1;" d="M 316.703125 85.339844 C 309.574219 129.742188 338.855469 156.6875 345.308594 195.054688 C 351.398438 183.449219 345.171875 163.417969 345.308594 144.777344 C 345.46875 121.804688 349.546875 75.277344 316.703125 85.339844 M 344.160156 224.765625 C 342.859375 205.09375 335.542969 180.953125 325.851562 158.480469 C 316.679688 137.179688 287.851562 66.691406 336.160156 79.625 C 348.570312 93.320312 356.421875 121.851562 349.886719 147.050781 C 357.210938 165.382812 349.203125 189.449219 348.734375 209.910156 C 348.457031 222.71875 356.339844 236.734375 346.460938 243.050781 C 340.175781 235.945312 344.609375 231.515625 344.160156 224.765625 "/>

<path style=" stroke:none;fill-rule:evenodd;fill:rgb(100%,84.309387%,84.309387%);fill-opacity:1;" d="M 316.703125 85.339844 C 309.574219 129.742188 338.855469 156.6875 345.308594 195.054688 C 351.398438 183.449219 345.171875 163.417969 345.308594 144.777344 C 345.46875 121.804688 349.546875 75.277344 316.703125 85.339844 "/>

<path style=" stroke:none;fill-rule:evenodd;fill:rgb(0%,0%,0%);fill-opacity:1;" d="M 569.589844 275.046875 C 572.914062 276.460938 576.570312 271.707031 578.746094 269.328125 C 587.171875 260.101562 595.171875 248.582031 603.921875 237.335938 C 615.699219 222.207031 629.957031 207.476562 637.101562 193.910156 C 644.136719 180.554688 644.621094 166.339844 632.53125 158.480469 C 610.582031 159.207031 603.699219 177.621094 594.765625 196.191406 C 591.15625 203.691406 586.179688 211.539062 583.316406 219.050781 C 576.234375 237.699219 577.460938 259.125 569.589844 275.046875 M 566.160156 269.328125 C 571.785156 253.753906 571.753906 235.117188 577.597656 219.050781 C 581.929688 207.152344 588.851562 194.757812 593.625 184.769531 C 603.089844 164.929688 622.152344 142.597656 643.96875 158.480469 C 644.828125 163.945312 650.261719 173.257812 649.6875 175.621094 C 642.664062 204.640625 617.5625 229.078125 595.90625 255.625 C 588.753906 264.386719 583.449219 274.152344 576.457031 281.902344 C 569.292969 289.847656 563.128906 300.585938 553.570312 302.476562 C 551.496094 290.617188 561.457031 282.363281 566.160156 269.328125 "/>

<path style=" stroke:none;fill-rule:evenodd;fill:rgb(100%,84.309387%,84.309387%);fill-opacity:1;" d="M 569.589844 275.046875 C 572.914062 276.460938 576.570312 271.707031 578.746094 269.328125 C 587.171875 260.101562 595.171875 248.582031 603.921875 237.335938 C 615.699219 222.207031 629.957031 207.476562 637.101562 193.910156 C 644.136719 180.554688 644.621094 166.339844 632.53125 158.480469 C 610.582031 159.207031 603.699219 177.621094 594.765625 196.191406 C 591.15625 203.691406 586.179688 211.539062 583.316406 219.050781 C 576.234375 237.699219 577.460938 259.125 569.589844 275.046875 "/>

<path style=" stroke:none;fill-rule:evenodd;fill:rgb(0%,0%,0%);fill-opacity:1;" d="M 359.039062 293.328125 C 325.535156 270.085938 320.097656 336.410156 355.605469 327.617188 C 368.183594 324.503906 366.886719 303.144531 359.039062 293.328125 M 362.480469 332.1875 C 332.359375 348.515625 310.320312 300.871094 333.859375 285.335938 C 343.5625 278.941406 351.457031 284.382812 363.617188 288.757812 C 372.988281 300.289062 375.496094 325.132812 362.480469 332.1875 "/>

<path style=" stroke:none;fill-rule:evenodd;fill:rgb(100%,100%,98.039246%);fill-opacity:1;" d="M 349.890625 303.621094 C 345.523438 303.074219 342.582031 303.945312 340.730469 305.90625 C 339.90625 309.402344 341.898438 310.070312 341.878906 312.761719 L 349.890625 312.761719 C 349.628906 307.992188 351.75 307.363281 349.890625 303.621094 M 355.609375 327.617188 C 320.097656 336.410156 325.535156 270.085938 359.035156 293.328125 C 366.890625 303.136719 368.1875 324.503906 355.609375 327.617188 "/>

<path style=" stroke:none;fill-rule:evenodd;fill:rgb(0%,0%,0%);fill-opacity:1;" d="M 349.890625 303.621094 C 345.523438 303.074219 342.582031 303.945312 340.730469 305.90625 C 339.90625 309.402344 341.898438 310.070312 341.878906 312.761719 L 349.890625 312.761719 C 349.628906 307.992188 351.75 307.363281 349.890625 303.621094 "/>

<path style=" stroke:none;fill-rule:evenodd;fill:rgb(0%,0%,0%);fill-opacity:1;" d="M 508.945312 318.476562 C 508.914062 317.363281 507.535156 317.589844 506.660156 317.332031 C 482.871094 321.605469 486.570312 367.707031 516.957031 361.898438 C 531.269531 357.257812 533.992188 335.132812 522.675781 325.332031 C 516.144531 325.003906 512.445312 321.835938 508.945312 318.476562 M 531.835938 325.332031 C 548.304688 348.207031 523.242188 380.5625 497.5 365.332031 C 475.617188 352.386719 479.058594 307.769531 510.085938 312.761719 C 517.863281 314.011719 527.210938 318.933594 531.835938 325.332031 "/>

<path style=" stroke:none;fill-rule:evenodd;fill:rgb(100%,100%,98.039246%);fill-opacity:1;" d="M 502.078125 336.757812 C 500.984375 341.664062 505.28125 341.171875 505.503906 344.765625 C 507.027344 342.855469 511.992188 344.378906 513.519531 342.472656 C 514.992188 331.835938 507.097656 333.113281 502.078125 336.757812 M 522.675781 325.332031 C 533.992188 335.132812 531.269531 357.261719 516.957031 361.902344 C 486.570312 367.707031 482.871094 321.605469 506.660156 317.332031 C 507.53125 317.589844 508.914062 317.363281 508.945312 318.472656 C 512.445312 321.835938 516.144531 325.003906 522.675781 325.332031 "/>

<path style=" stroke:none;fill-rule:evenodd;fill:rgb(0%,0%,0%);fill-opacity:1;" d="M 502.078125 336.757812 C 500.984375 341.664062 505.28125 341.171875 505.503906 344.765625 C 507.027344 342.855469 511.992188 344.378906 513.519531 342.472656 C 514.992188 331.835938 507.097656 333.113281 502.078125 336.757812 "/>

<path style=" stroke:none;fill-rule:evenodd;fill:rgb(0%,0%,0%);fill-opacity:1;" d="M 400.230469 366.480469 C 394.953125 387.847656 424.40625 391.167969 437.996094 382.476562 C 445.125 360.851562 412.414062 355.992188 400.230469 366.480469 M 447.152344 376.757812 C 446.84375 407.066406 379.914062 393.96875 392.222656 364.183594 C 394.074219 359.722656 401.855469 355.496094 411.683594 355.046875 C 429.617188 354.234375 447.3125 360.472656 447.152344 376.757812 "/>

<path style=" stroke:none;fill-rule:evenodd;fill:rgb(100%,84.309387%,84.309387%);fill-opacity:1;" d="M 400.230469 366.480469 C 394.953125 387.847656 424.40625 391.167969 437.996094 382.476562 C 445.125 360.851562 412.414062 355.992188 400.230469 366.480469 "/>

<path style=" stroke:none;fill-rule:evenodd;fill:rgb(0%,0%,0%);fill-opacity:1;" d="M 439.136719 422.472656 C 436.203125 422.582031 437.503906 426.941406 434.566406 427.046875 C 438.007812 436.929688 444.945312 443.335938 449.433594 452.1875 C 461.539062 459.28125 481.921875 453.8125 486.0625 441.898438 C 487.039062 439.042969 489.457031 429.253906 482.621094 428.183594 C 475.71875 460.949219 443.589844 446.585938 439.136719 422.472656 "/>

<path style=" stroke:none;fill-rule:evenodd;fill:rgb(0%,0%,0%);fill-opacity:1;" d="M 370.484375 504.757812 C 375.097656 505.964844 378.710938 506.261719 378.496094 500.183594 C 375.515625 497.769531 368.367188 498.53125 370.484375 504.757812 "/>

<path style=" stroke:none;fill-rule:evenodd;fill:rgb(0%,0%,0%);fill-opacity:1;" d="M 377.34375 513.898438 C 374.613281 514.589844 369.042969 512.464844 368.195312 515.039062 C 368.355469 519.070312 373.332031 518.296875 376.207031 519.609375 C 375.257812 516.382812 377.820312 516.652344 377.34375 513.898438 "/>

<path style=" stroke:none;fill-rule:evenodd;fill:rgb(0%,0%,0%);fill-opacity:1;" d="M 360.1875 661.324219 C 341.542969 660.304688 293.476562 677.898438 282.378906 688.75 C 279.558594 691.488281 271.867188 704.847656 270.925781 708.175781 C 266.28125 724.804688 271.855469 751.101562 281.226562 763.035156 C 306.777344 795.53125 386.132812 811.699219 435.703125 791.601562 C 461.214844 781.265625 483.839844 759.597656 476.902344 718.460938 C 470.664062 681.457031 431.285156 670.695312 388.792969 665.890625 C 378.710938 664.753906 369.773438 661.84375 360.1875 661.324219 M 363.617188 654.46875 C 372.652344 655.390625 383.480469 658.660156 394.511719 660.179688 C 404.980469 661.621094 416.734375 662.269531 425.40625 664.746094 C 462.191406 675.265625 496.203125 710.59375 480.339844 757.320312 C 459.460938 818.769531 348.570312 814.042969 297.242188 785.890625 C 278.304688 769.890625 257.085938 744.394531 264.070312 709.320312 C 267.78125 690.632812 284.441406 682.457031 298.394531 671.609375 C 317.164062 672.160156 337.550781 651.785156 363.617188 654.46875 "/>

<path style=" stroke:none;fill-rule:evenodd;fill:rgb(100%,84.309387%,84.309387%);fill-opacity:1;" d="M 360.1875 661.324219 C 341.542969 660.304688 293.476562 677.898438 282.378906 688.75 C 279.558594 691.488281 271.867188 704.847656 270.925781 708.175781 C 266.28125 724.804688 271.855469 751.101562 281.226562 763.035156 C 306.777344 795.53125 386.132812 811.699219 435.703125 791.601562 C 461.214844 781.265625 483.839844 759.597656 476.902344 718.460938 C 470.664062 681.457031 431.285156 670.695312 388.792969 665.890625 C 378.710938 664.753906 369.773438 661.84375 360.1875 661.324219 "/>

<path style=" stroke:none;fill-rule:evenodd;fill:rgb(0%,0%,0%);fill-opacity:1;" d="M 241.183594 689.890625 C 237.699219 690.601562 235.328125 692.433594 235.464844 696.742188 C 237.515625 698.230469 244.164062 696.976562 243.472656 692.179688 C 242.445312 691.675781 241.417969 691.167969 241.183594 689.890625 "/>

<path style=" stroke:none;fill-rule:evenodd;fill:rgb(0%,0%,0%);fill-opacity:1;" d="M 249.191406 696.742188 C 243.933594 697.589844 240.257812 700.011719 238.890625 704.746094 C 244.476562 708.28125 250.273438 703.539062 249.191406 696.742188 "/>

<path style=" stroke:none;fill-rule:evenodd;fill:rgb(0%,0%,0%);fill-opacity:1;" d="M 539.84375 729.890625 C 537.960938 733.804688 539.265625 738.964844 545.5625 737.886719 C 544.296875 734.578125 544.144531 730.15625 539.84375 729.890625 "/>

<path style=" stroke:none;fill-rule:evenodd;fill:rgb(0%,0%,0%);fill-opacity:1;" d="M 536.402344 744.75 C 536.425781 751.167969 541.582031 752.015625 546.699219 750.457031 C 545.988281 745.835938 541.207031 745.277344 536.402344 744.75 "/>

<path style=" stroke:none;fill-rule:evenodd;fill:rgb(100%,97.648621%,96.078491%);fill-opacity:1;" d="M 336.160156 534.46875 C 336.757812 527.394531 335 522.667969 331.582031 519.609375 C 328.109375 516.761719 324.980469 522.238281 321.28125 519.609375 C 322.625 506.855469 338.507812 508.636719 337.300781 493.324219 C 326.730469 489.402344 323.011719 500.753906 315.554688 503.613281 C 308.425781 495.863281 322.683594 485.363281 318.996094 477.328125 C 309.222656 475.730469 306.542969 490.691406 301.824219 497.902344 C 289.597656 495.289062 300.472656 469.207031 280.085938 472.757812 C 273.242188 483.414062 279.828125 495.890625 272.066406 504.753906 C 268.472656 508.886719 258.636719 512.09375 250.332031 518.472656 C 242.855469 524.207031 236.46875 530.710938 230.886719 533.324219 C 221.871094 537.554688 213.855469 538.261719 209.148438 544.753906 C 200.960938 556.035156 201.386719 569.964844 211.425781 588.1875 C 214.507812 587.6875 217.292969 583.890625 220.585938 587.039062 C 221.859375 590.351562 221.816406 585.285156 219.4375 585.894531 C 246.054688 579.960938 266.960938 562.925781 288.097656 549.328125 C 291.761719 546.96875 299.386719 545.511719 304.113281 542.46875 C 306.898438 540.683594 307.296875 537.5 309.835938 536.757812 C 318.519531 534.21875 327.703125 540.886719 336.160156 534.46875 "/>

<path style=" stroke:none;fill-rule:evenodd;fill:rgb(100%,97.648621%,96.078491%);fill-opacity:1;" d="M 270.925781 475.039062 C 263.167969 481.769531 256.863281 499.851562 249.191406 510.472656 C 262.039062 504.757812 272.734375 491.683594 270.925781 475.039062 "/>

<g clip-path="url(#clip1)" clip-rule="nonzero">

<path style=" stroke:none;fill-rule:evenodd;fill:rgb(0%,0%,0%);fill-opacity:1;" d="M 270.925781 475.039062 C 263.167969 481.769531 256.863281 499.851562 249.191406 510.472656 C 262.039062 504.757812 272.734375 491.683594 270.925781 475.039062 M 336.160156 534.46875 C 336.761719 527.394531 335 522.667969 331.582031 519.609375 C 328.109375 516.761719 324.980469 522.238281 321.28125 519.609375 C 322.625 506.859375 338.507812 508.636719 337.300781 493.324219 C 326.730469 489.402344 323.007812 500.757812 315.550781 503.613281 C 308.421875 495.863281 322.679688 485.359375 318.996094 477.328125 C 309.222656 475.730469 306.539062 490.691406 301.824219 497.902344 C 289.597656 495.285156 300.472656 469.210938 280.085938 472.757812 C 273.242188 483.414062 279.828125 495.890625 272.066406 504.757812 C 268.472656 508.882812 258.636719 512.09375 250.332031 518.472656 C 242.851562 524.207031 236.46875 530.710938 230.886719 533.324219 C 221.871094 537.554688 213.851562 538.261719 209.144531 544.753906 C 200.960938 556.035156 201.386719 569.964844 211.425781 588.1875 C 214.503906 587.6875 217.292969 583.890625 220.589844 587.039062 C 221.859375 590.351562 221.816406 585.285156 219.4375 585.894531 C 246.054688 579.957031 266.957031 562.925781 288.097656 549.328125 C 291.761719 546.96875 299.386719 545.511719 304.113281 542.46875 C 306.898438 540.683594 307.292969 537.5 309.835938 536.757812 C 318.519531 534.21875 327.703125 540.886719 336.160156 534.46875 M 328.152344 236.191406 C 291.355469 250.503906 269.011719 279.230469 254.910156 316.1875 C 267.554688 326.421875 285.910156 330.945312 294.964844 344.765625 C 280.214844 343.546875 268.882812 326.816406 252.621094 321.902344 C 250.445312 334.71875 244.894531 347.207031 246.902344 360.761719 C 256.433594 364.195312 271.523438 362.070312 276.648438 369.902344 C 269.453125 375.074219 254.074219 363.929688 245.761719 366.480469 C 247.058594 382.152344 247.207031 400.769531 251.484375 413.328125 C 258.894531 411.855469 265.933594 405.597656 273.21875 407.613281 C 272.046875 416.730469 258.613281 413.597656 253.773438 419.046875 C 258.261719 437.796875 267.113281 452.183594 276.648438 465.898438 C 289.515625 459.492188 298.542969 471.6875 301.824219 481.902344 C 305.898438 473.441406 320.289062 462.632812 327 476.1875 C 326.550781 480.304688 325.523438 483.851562 324.714844 487.613281 C 333.699219 484.957031 338.382812 485.136719 344.160156 489.902344 C 344.347656 500.371094 339.308594 505.617188 336.160156 512.753906 C 338.675781 520.144531 343.683594 525.050781 341.878906 536.757812 C 336.046875 545.910156 326.085938 542.140625 316.703125 543.617188 C 301.816406 545.941406 292.597656 556.976562 280.085938 565.324219 C 267.09375 573.988281 251.59375 575.636719 241.183594 585.894531 C 231.429688 588.339844 219.210938 588.328125 213.71875 595.039062 C 209.203125 636.703125 195.09375 695.324219 195.410156 740.171875 C 195.78125 793.570312 223.515625 822.691406 267.5 847.605469 C 271.597656 847.703125 274.109375 849.375 277.796875 849.886719 C 281.597656 854.144531 280.402344 856.367188 283.515625 861.308594 C 275.382812 875.277344 276.289062 898.285156 268.636719 912.738281 C 249.160156 902.410156 223.171875 893.371094 199.988281 884.167969 C 196.582031 882.828125 191.980469 883.203125 188.542969 881.890625 C 181.289062 879.097656 175.984375 873.90625 169.09375 871.59375 C 161.875 869.175781 153.550781 869.628906 146.207031 867.027344 C 137.070312 863.796875 128.578125 857.46875 118.742188 857.878906 C 101.265625 858.625 84.164062 869.480469 68.394531 877.3125 C 64.253906 883.472656 58.730469 893.035156 62.664062 903.597656 C 67.089844 908.417969 70.269531 901.203125 75.253906 904.738281 C 79.957031 897.332031 83.496094 883.660156 94.710938 886.457031 C 88.550781 894.246094 77.660156 902.636719 83.261719 918.449219 C 92.015625 925.324219 105.148438 921.929688 117.597656 920.742188 C 116.246094 903.382812 124.980469 896.109375 132.480469 887.597656 C 138.738281 888.859375 148.359375 880.574219 150.785156 888.742188 C 150.300781 895.617188 143.015625 889.980469 138.199219 891.035156 C 130.007812 897.703125 122.617188 905.191406 123.320312 920.742188 C 125.453125 925.085938 130.867188 926.160156 133.621094 929.886719 C 182.742188 929.71875 230.953125 942.960938 277.796875 940.171875 C 279.804688 935.699219 283.484375 932.894531 285.808594 928.734375 C 281.433594 907.0625 290.328125 883.390625 300.6875 869.3125 C 344.488281 872.882812 413.488281 876.96875 457.441406 865.886719 C 464.707031 864.058594 470.652344 858.144531 478.050781 861.308594 C 484.007812 880.101562 491.054688 902.53125 488.351562 924.171875 C 486.941406 935.363281 477.160156 944.832031 482.621094 956.167969 C 497.027344 960.761719 511.65625 958.777344 526.105469 959.597656 C 577.753906 962.519531 628.292969 969.257812 677.15625 971.023438 C 690.171875 971.496094 703.765625 969.0625 710.339844 972.164062 C 722.875 965.789062 715.925781 948.96875 705.765625 945.882812 C 702.851562 944.996094 698.453125 948.945312 695.464844 945.882812 C 696.070312 950.601562 697.144531 954.875 697.753906 959.597656 C 694.253906 958.769531 694.378906 961.566406 690.882812 960.746094 C 691.738281 945.769531 687.101562 923.480469 666.855469 929.886719 C 667.941406 938.484375 672.644531 949.035156 670.289062 957.3125 C 661.046875 954.582031 665.039062 940.285156 662.277344 933.308594 C 649.417969 900.886719 604.214844 893.980469 565.007812 903.597656 C 555.792969 905.863281 546.195312 909.929688 537.554688 912.738281 C 524.839844 916.871094 517.609375 922.011719 504.367188 925.316406 C 498.175781 921.5625 502.867188 916.804688 503.214844 911.601562 C 504.703125 889.566406 496.4375 864.78125 490.640625 847.605469 C 491.03125 846.097656 492.648438 845.800781 492.917969 844.171875 C 522.652344 841.101562 545.257812 830.917969 563.871094 816.746094 C 570.617188 822.570312 580.980469 824.796875 591.335938 827.027344 C 592.710938 823.449219 593.617188 819.402344 594.765625 815.601562 C 601.398438 811.242188 609.238281 811.332031 615.363281 808.746094 C 604.445312 799.355469 603.394531 780.527344 622.230469 779.027344 C 621.0625 771.816406 613.53125 770.949219 609.640625 766.460938 C 610.082031 758.523438 615.394531 755.457031 618.792969 750.457031 C 610.625 747.425781 597.527344 745.542969 589.046875 749.324219 C 582.863281 746.675781 589.011719 738.746094 582.175781 736.746094 C 585.117188 664.015625 570.265625 584.808594 550.144531 516.1875 C 525.609375 526.464844 491.78125 529.835938 468.890625 531.039062 C 465.925781 534.558594 461.945312 537.058594 460.882812 542.46875 C 483.027344 575.207031 526.511719 586.640625 555.863281 612.179688 C 537.476562 614.285156 526.871094 596.96875 512.375 590.46875 C 509.308594 589.09375 506.105469 589.632812 503.214844 588.1875 C 490.371094 581.738281 481.210938 568.984375 467.742188 564.175781 C 466.230469 554.25 454.871094 551.976562 454.011719 543.617188 C 452.96875 533.382812 472.503906 525.113281 460.882812 512.753906 C 447.347656 512.570312 446.261719 524.828125 436.855469 528.757812 C 428.171875 520.65625 436.304688 499.296875 424.269531 493.324219 C 419.894531 505.425781 423.160156 514.550781 424.269531 526.464844 C 411.554688 526.21875 412.4375 512.378906 399.089844 512.753906 C 387.742188 526.632812 409.652344 531.15625 412.820312 541.324219 C 409.964844 547.445312 404.300781 538.929688 400.234375 542.46875 C 396.9375 546.027344 394.546875 550.5 394.511719 557.324219 C 400.882812 568.882812 420.984375 564.300781 432.277344 559.613281 C 445.824219 581.058594 469.996094 598.21875 492.917969 614.464844 C 510.382812 626.839844 525.4375 632.050781 543.273438 645.320312 C 522.628906 642.679688 491.824219 623.988281 473.472656 609.898438 C 456.878906 597.152344 441.742188 582.015625 429.992188 567.613281 C 416.980469 568.671875 400.523438 573.285156 389.945312 564.175781 C 385.835938 550.996094 391.75 539.84375 397.941406 533.324219 C 377.511719 527.269531 394.761719 493.953125 412.820312 510.472656 C 416.996094 500.378906 414.09375 484.058594 424.269531 483.042969 C 435.777344 481.890625 438.707031 502.003906 441.425781 515.039062 C 450.460938 504.542969 472.726562 499.589844 471.179688 523.042969 C 501.242188 523.734375 526.148438 519.265625 546.699219 510.472656 C 559.425781 498.800781 575.621094 490.589844 579.886719 470.46875 C 575.8125 467.296875 568.4375 467.433594 566.160156 462.46875 C 571.339844 453.65625 576.964844 466.464844 584.46875 465.898438 C 586.28125 460.472656 590.738281 457.695312 590.1875 449.898438 C 584.492188 448.738281 576.414062 449.945312 575.308594 444.1875 C 579.730469 438.035156 585.074219 446.175781 592.472656 444.1875 C 594.03125 437.175781 598.34375 427.453125 597.054688 421.328125 C 590.1875 420.921875 579.089844 426.101562 575.308594 417.898438 C 580.914062 415.460938 591.257812 419.894531 599.347656 416.761719 C 600.089844 389.847656 613.691406 366.121094 603.921875 341.328125 C 594.542969 336.21875 588.550781 327.722656 575.308594 326.480469 C 569.792969 313.707031 587.691406 303.765625 595.90625 294.476562 C 602.726562 286.773438 611.867188 279.070312 615.363281 271.621094 C 623.234375 254.878906 626.273438 235.6875 634.820312 219.050781 C 648.664062 192.082031 674.203125 178.988281 693.171875 160.765625 C 694.523438 154.125 698.496094 150.085938 701.179688 144.769531 C 700.433594 123.296875 688.335938 111.136719 666.855469 111.628906 C 624.726562 112.585938 595.382812 150.554688 578.746094 176.769531 C 564.523438 201.78125 558.523438 235.128906 548.988281 267.046875 C 546.148438 276.570312 544.320312 288.449219 535.265625 293.328125 C 529.363281 291.226562 524.707031 287.875 521.523438 283.050781 C 477.878906 264.550781 418.234375 235.136719 371.625 244.191406 C 368.683594 241.800781 364.550781 240.597656 361.328125 238.484375 C 358.777344 217.5625 364.394531 195.351562 365.90625 172.199219 C 367.035156 154.910156 363.222656 137.222656 362.480469 119.621094 C 360.96875 84.109375 359.613281 51.332031 335.011719 32.773438 C 324.65625 28.738281 318.925781 25.238281 307.546875 30.488281 C 290.195312 38.5 282.703125 58.996094 284.667969 80.769531 C 288.355469 121.933594 323.175781 165.945312 328.152344 200.769531 C 330.070312 214.273438 327.507812 228.796875 328.152344 236.191406 M 270.925781 262.484375 C 280.921875 251.84375 295.261719 244.691406 305.253906 233.914062 C 331.386719 205.746094 298.632812 166.46875 288.097656 142.480469 C 278.804688 121.296875 271.808594 94.578125 268.636719 73.914062 C 267.0625 63.566406 272.464844 42.941406 277.796875 35.0625 C 287.949219 20.027344 320.007812 16.195312 340.730469 22.488281 C 362.398438 44.011719 375.101562 69.582031 376.203125 104.773438 C 376.667969 119.34375 378.089844 131.429688 378.496094 144.769531 C 379.332031 172.203125 376.136719 198.996094 375.066406 228.191406 C 420.230469 230.554688 457.195312 237.214844 490.640625 249.90625 C 505.792969 255.660156 516.6875 268.59375 532.972656 270.480469 C 542.800781 258.523438 543.207031 241.558594 546.699219 225.910156 C 549.984375 211.289062 556.761719 197.503906 563.871094 183.621094 C 577.597656 156.84375 590.851562 129.636719 611.9375 113.90625 C 631.4375 99.367188 681.960938 89.289062 700.046875 109.34375 C 706.371094 121.207031 715.210938 135.714844 712.632812 152.765625 C 699.09375 180.394531 671.910156 194.382812 651.980469 215.625 C 647.339844 225.871094 641.035156 232.863281 637.101562 244.191406 C 633.25 255.261719 632.847656 268.175781 627.953125 278.476562 C 619.773438 295.679688 605.726562 305.726562 594.765625 318.476562 C 603.789062 325.910156 615.105469 329.644531 618.792969 340.195312 C 628.324219 367.46875 606.507812 389.585938 610.78125 417.898438 C 640.707031 427.253906 679.773438 427.476562 700.046875 446.472656 C 677.605469 434.972656 640.859375 427.875 608.496094 422.472656 C 607.265625 432.28125 604.136719 440.214844 602.777344 449.898438 C 614.152344 453.175781 623.574219 460.128906 634.820312 465.898438 C 651.6875 474.558594 674.546875 476.46875 680.585938 493.324219 C 661.179688 478.046875 626.855469 467.753906 601.621094 454.480469 C 599.582031 461.949219 595.535156 467.425781 594.765625 476.1875 C 614.652344 497.476562 634.890625 518.402344 651.980469 542.46875 C 630.285156 523.757812 614.167969 499.472656 592.472656 480.753906 C 587.828125 497.453125 575.589844 506.558594 565.007812 517.328125 C 585.660156 580.109375 595.863281 662.523438 597.054688 731.035156 C 610.964844 730.902344 624.554688 735.363281 635.960938 744.75 C 635.476562 754.152344 630.050781 758.652344 626.800781 765.320312 C 632.292969 771.269531 641.070312 773.921875 641.679688 784.738281 C 635.8125 789.171875 628.042969 791.691406 621.082031 795.023438 C 625.867188 800.546875 632.144531 809.347656 630.242188 817.886719 C 624.804688 823.507812 613.332031 823.097656 606.203125 827.027344 C 601.984375 833.410156 607.875 838.175781 601.621094 843.03125 C 589.070312 843.761719 580.792969 832.972656 568.453125 833.882812 C 559.40625 834.554688 548.664062 843.546875 538.695312 847.605469 C 526.828125 852.414062 516.46875 852.207031 506.660156 857.878906 C 510.707031 873.648438 513.542969 890.628906 515.804688 908.164062 C 544.964844 895.742188 608.28125 878.003906 642.832031 897.878906 C 653.0625 903.78125 656.476562 912.953125 665.714844 918.449219 C 684.914062 917.179688 694.308594 925.699219 702.328125 935.597656 C 723.132812 937.503906 730.328125 957.09375 728.648438 977.882812 C 710.304688 997.425781 678.28125 989.082031 647.398438 987.03125 C 583.960938 982.792969 515.589844 996.023438 467.742188 974.457031 C 466.761719 967.9375 463.421875 962.667969 463.175781 957.3125 C 462.359375 940.40625 473.167969 924.707031 475.761719 912.738281 C 478.515625 900.046875 473.324219 888.292969 467.742188 876.171875 C 416.417969 886.964844 364.980469 889.683594 308.691406 884.167969 C 290.015625 897.566406 303.84375 936.996094 285.808594 951.589844 C 264.703125 959.949219 241.710938 953.640625 217.144531 950.457031 C 191.390625 947.105469 161.050781 946.140625 139.335938 944.742188 C 127.773438 943.992188 121.144531 935.414062 111.878906 934.457031 C 106.601562 933.90625 101.199219 936.9375 95.851562 936.742188 C 82.789062 936.269531 73.773438 931.089844 67.246094 919.601562 C 38.234375 920.105469 49.253906 877.070312 61.527344 865.886719 C 76.742188 852.015625 112.386719 841.039062 139.335938 843.03125 C 186.445312 846.519531 228.265625 880.554688 260.628906 886.457031 C 263.890625 879.429688 263.96875 869.222656 265.207031 860.171875 C 225.742188 837.753906 181.242188 810.128906 179.390625 750.457031 C 178.703125 728.214844 183.339844 701.546875 186.246094 677.324219 C 189.226562 652.617188 194.113281 629.160156 197.695312 608.753906 C 200.011719 595.550781 193.210938 591.789062 190.828125 583.609375 C 177.992188 539.507812 215.632812 524.003906 234.3125 507.039062 C 242.355469 493.355469 251.527344 480.804688 258.339844 465.898438 C 251.59375 451.308594 244.398438 437.15625 237.753906 422.472656 C 213.625 428.472656 186.53125 431.511719 162.222656 437.328125 C 157.058594 437.496094 159.988281 445.761719 154.214844 445.332031 C 151.316406 428.066406 170.898438 431.289062 183.96875 429.332031 C 201.839844 426.652344 223.902344 420.488281 237.753906 415.613281 C 229.894531 402.011719 234.210938 374.496094 229.734375 360.761719 C 190.554688 358.164062 163.363281 348.425781 132.480469 355.046875 C 132.21875 348.328125 140.488281 348.71875 143.917969 348.191406 C 173.503906 343.652344 203.949219 356.375 232.023438 356.191406 C 232.441406 342.863281 236.308594 329.289062 241.183594 317.332031 C 211.382812 302.148438 176.253906 292.269531 137.046875 286.476562 C 133.671875 283.316406 126.125 291.496094 125.605469 284.1875 C 134.167969 279.078125 146.679688 282.695312 156.503906 284.1875 C 186.644531 288.773438 215.792969 302.714844 243.472656 310.476562 C 252.777344 290.074219 258.789062 275.417969 270.925781 262.484375 "/>

</g>

</g>

</svg>
